<?xml version="1.0" encoding="utf-8"?>
<!-- Generated with PSSVG 0.2.10 <https://github.com/StartAutomating/PSSVG> -->
<svg viewBox="0 0 300 100" xmlns:xlink="http://www.w3.org/1999/xlink" xmlns="http://www.w3.org/2000/svg">
  <style type="text/css">@import url('https://fonts.googleapis.com/css?family=Noto Sans')</style>
  <path d="M 90, 0 90 0 90.0193440286641 1 90.0773012763672 2 90.1736475177774 3 90.3080100080033 4 90.4798689246727 5 90.6885593790234 6 90.9332739882293 7 91.2130659990073 8 91.5268529504222 9 91.8734208617175 10 92.2514289289711 11 92.6594147124054 12 93.0957997942825 13 93.558895885496 14 94.0469113572333 15 94.5579581724397 16 95.0900591902668 17 95.6411558152463 18 96.2091159615962 19 96.7917423018463 20 97.3867807678714 21 97.9919292714428 22 98.6048466105608 23 99.2231615271099 24 99.8444818807965 25 100.466403903874 26 101.086521500855 27 101.702435557224 28 102.31176322115 29 102.912147122273 30 103.501264491914 31 104.076836149417 32 104.636635319853 33 105.178496248983 34 105.700322582138 35 106.200095474608 36 106.675881402162 37 107.125839641475 38 107.548229391533 39 107.941416508448 40 108.303879827648 41 108.634217048967 42 108.931150161868 43 109.193530389822 44 109.4203426347 45 109.610709403987 46 109.763894205636 47 109.879304397408 48 109.95649347969 49 109.99516282292 50 109.99516282292 51 109.95649347969 52 109.879304397408 53 109.763894205636 54 109.610709403987 55 109.4203426347 56 109.193530389822 57 108.931150161868 58 108.634217048967 59 108.303879827648 60 107.941416508448 61 107.548229391533 62 107.125839641475 63 106.675881402162 64 106.200095474608 65 105.700322582138 66 105.178496248983 67 104.636635319853 68 104.076836149417 69 103.501264491914 70 102.912147122273 71 102.31176322115 72 101.702435557224 73 101.086521500855 74 100.466403903874 75 99.8444818807965 76 99.2231615271099 77 98.6048466105608 78 97.9919292714428 79 97.3867807678714 80 96.7917423018463 81 96.2091159615962 82 95.6411558152463 83 95.0900591902668 84 94.5579581724397 85 94.0469113572333 86 93.558895885496 87 93.0957997942825 88 92.6594147124054 89 92.2514289289711 90 91.8734208617175 91 91.5268529504222 92 91.2130659990073 93 90.9332739882293 94 90.6885593790234 95 90.4798689246727 96 90.3080100080033 97 90.1736475177774 98 90.0773012763672 99 90.0193440286641 100 M 110, 0 110 0 109.980655971336 1 109.922698723633 2 109.826352482223 3 109.691989991997 4 109.520131075327 5 109.311440620977 6 109.066726011771 7 108.786934000993 8 108.473147049578 9 108.126579138283 10 107.748571071029 11 107.340585287595 12 106.904200205717 13 106.441104114504 14 105.953088642767 15 105.44204182756 16 104.909940809733 17 104.358844184754 18 103.790884038404 19 103.208257698154 20 102.613219232129 21 102.008070728557 22 101.395153389439 23 100.77683847289 24 100.155518119204 25 99.5335960961258 26 98.9134784991453 27 98.297564442776 28 97.6882367788503 29 97.0878528777275 30 96.4987355080861 31 95.9231638505831 32 95.3633646801467 33 94.8215037510167 34 94.2996774178622 35 93.7999045253923 36 93.3241185978385 37 92.8741603585249 38 92.4517706084674 39 92.0585834915525 40 91.696120172352 41 91.3657829510334 42 91.0688498381321 43 90.8064696101776 44 90.5796573653001 45 90.3892905960128 46 90.2361057943639 47 90.1206956025924 48 90.0435065203098 49 90.0048371770801 50 90.0048371770801 51 90.0435065203098 52 90.1206956025924 53 90.2361057943639 54 90.3892905960128 55 90.5796573653001 56 90.8064696101776 57 91.0688498381321 58 91.3657829510334 59 91.696120172352 60 92.0585834915525 61 92.4517706084674 62 92.8741603585249 63 93.3241185978385 64 93.7999045253923 65 94.2996774178622 66 94.8215037510167 67 95.3633646801467 68 95.9231638505831 69 96.4987355080861 70 97.0878528777275 71 97.6882367788503 72 98.297564442776 73 98.9134784991452 74 99.5335960961258 75 100.155518119203 76 100.77683847289 77 101.395153389439 78 102.008070728557 79 102.613219232129 80 103.208257698154 81 103.790884038404 82 104.358844184754 83 104.909940809733 84 105.44204182756 85 105.953088642767 86 106.441104114504 87 106.904200205717 88 107.340585287595 89 107.748571071029 90 108.126579138282 91 108.473147049578 92 108.786934000993 93 109.066726011771 94 109.311440620977 95 109.520131075327 96 109.691989991997 97 109.826352482223 98 109.922698723633 99 109.980655971336 100" stroke="#199ac1" fill="transparent">
    <animate attributeName="stroke" dur="10s" values="#199ac1;#359DA8;#199ac1" repeatCount="indefinite" />
  </path>
  <text x="50%" y="50%" text-anchor="middle" dominant-baseline="middle" style="font-family: 'Noto Sans', sans-serif" fill="#199AC1" class="foreground-fill" font-size="4em" font-weight="500">
    <tspan font-size=".5em">Braid</tspan>
    <animate attributeName="fill" dur="10s" values="#199ac1;#359DA8;#199ac1" repeatCount="indefinite" />
  </text>
</svg>
